Coordinates
version=1
nRows=87
nColumns=8
inDegrees=yes

# SIMM Motion File Header:
name Coordinates
datacolumns 8
datarows 87
otherdata 1
range 0.93200000 1.01800000

Units are S.I. units (second, meters, Newtons, ...)
Angles are in degrees.

endheader
time	pelvis_tilt	pelvis_tx	pelvis_ty	hip_flexion_r	knee_angle_r	knee_angle_pat_r	ankle_angle_r
      0.93200000	      2.23914627	      0.03236556	      1.08407141	      7.65093713	    -18.46604527	    -18.46604104	     11.14605022
      0.93300000	      2.22278764	      0.03228302	      1.08417792	      7.57582510	    -18.39943328	    -18.39942904	     11.16128981
      0.93400000	      2.20626784	      0.03220035	      1.08428381	      7.50094658	    -18.33294733	    -18.33294309	     11.17668491
      0.93500000	      2.18860924	      0.03211669	      1.08438523	      7.42772986	    -18.26732302	    -18.26731878	     11.19163250
      0.93600000	      2.17076836	      0.03203287	      1.08448591	      7.35478191	    -18.20183219	    -18.20182795	     11.20620624
      0.93700000	      2.15201700	      0.03194820	      1.08458284	      7.28317648	    -18.13700811	    -18.13700387	     11.21891258
      0.93800000	      2.13294301	      0.03186320	      1.08467836	      7.21205580	    -18.07242859	    -18.07242435	     11.23059151
      0.93900000	      2.11314580	      0.03177746	      1.08477074	      7.14202169	    -18.00839726	    -18.00839303	     11.23996738
      0.94000000	      2.09316444	      0.03169152	      1.08486226	      7.07227040	    -17.94451876	    -17.94451452	     11.24873460
      0.94100000	      2.07238698	      0.03160465	      1.08494991	      7.00376557	    -17.88136517	    -17.88136094	     11.25523155
      0.94200000	      2.05127761	      0.03151735	      1.08503583	      6.93579932	    -17.81856613	    -17.81856189	     11.26111105
      0.94300000	      2.02952380	      0.03142930	      1.08511853	      6.86887975	    -17.75651254	    -17.75650830	     11.26716881
      0.94400000	      2.00747673	      0.03134091	      1.08519979	      6.80243650	    -17.69479820	    -17.69479396	     11.27330768
      0.94500000	      1.98486970	      0.03125202	      1.08527868	      6.73687158	    -17.63370823	    -17.63370399	     11.28073311
      0.94600000	      1.96142891	      0.03116239	      1.08535406	      6.67261450	    -17.57354795	    -17.57354372	     11.29007420
      0.94700000	      1.93780055	      0.03107263	      1.08542876	      6.60864059	    -17.51357667	    -17.51357243	     11.29996317
      0.94800000	      1.91274682	      0.03098190	      1.08549831	      6.54681863	    -17.45504158	    -17.45503735	     11.31401563
      0.94900000	      1.88739656	      0.03089100	      1.08556687	      6.48543225	    -17.39677358	    -17.39676934	     11.32882132
      0.95000000	      1.86095386	      0.03079947	      1.08563183	      6.42565057	    -17.33948949	    -17.33948525	     11.34640191
      0.95100000	      1.83336889	      0.03070737	      1.08569329	      6.36750515	    -17.28311109	    -17.28310686	     11.36615390
      0.95200000	      1.80428166	      0.03061464	      1.08575060	      6.31143824	    -17.22771897	    -17.22771473	     11.38744268
      0.95300000	      1.77444651	      0.03052163	      1.08580595	      6.25638273	    -17.17273942	    -17.17273518	     11.40867993
      0.95400000	      1.74316685	      0.03042808	      1.08585754	      6.20328055	    -17.11855668	    -17.11855244	     11.42981767
      0.95500000	      1.71049013	      0.03033397	      1.08590545	      6.15204887	    -17.06504114	    -17.06503691	     11.44909658
      0.95600000	      1.67701994	      0.03023955	      1.08595127	      6.10187954	    -17.01190454	    -17.01190030	     11.46731978
      0.95700000	      1.64199039	      0.03014437	      1.08599263	      6.05381082	    -16.95947159	    -16.95946735	     11.48165873
      0.95800000	      1.60658672	      0.03004901	      1.08603292	      6.00624606	    -16.90720745	    -16.90720321	     11.49506579
      0.95900000	      1.56973405	      0.02995266	      1.08606822	      5.96069964	    -16.85568538	    -16.85568114	     11.50349256
      0.96000000	      1.53284460	      0.02985628	      1.08610340	      5.91520446	    -16.80418215	    -16.80417791	     11.51179290
      0.96100000	      1.49520801	      0.02975907	      1.08613506	      5.87083847	    -16.75323591	    -16.75323167	     11.51731521
      0.96200000	      1.45739340	      0.02966101	      1.08616386	      5.82694087	    -16.70283280	    -16.70282856	     11.52227175
      0.96300000	      1.41960127	      0.02956287	      1.08619249	      5.78303887	    -16.65247514	    -16.65247091	     11.52735142
      0.96400000	      1.38219812	      0.02946362	      1.08621823	      5.73903507	    -16.60285121	    -16.60284698	     11.53453929
      0.96500000	      1.34490186	      0.02936423	      1.08624371	      5.69495189	    -16.55332312	    -16.55331889	     11.54227996
      0.96600000	      1.30842113	      0.02926382	      1.08626713	      5.65026308	    -16.50452622	    -16.50452198	     11.55423826
      0.96700000	      1.27237221	      0.02916300	      1.08628989	      5.60521386	    -16.45602863	    -16.45602439	     11.56820940
      0.96800000	      1.23707308	      0.02906148	      1.08631151	      5.55953882	    -16.40805080	    -16.40804656	     11.58567579
      0.96900000	      1.20267480	      0.02895922	      1.08633211	      5.51308226	    -16.36060894	    -16.36060470	     11.60646074
      0.97000000	      1.16871467	      0.02885660	      1.08635221	      5.46624557	    -16.31342777	    -16.31342354	     11.62885983
      0.97100000	      1.13599965	      0.02875301	      1.08637110	      5.41831420	    -16.26691171	    -16.26690748	     11.65446023
      0.97200000	      1.10413982	      0.02864875	      1.08638916	      5.36963327	    -16.22082815	    -16.22082391	     11.68135259
      0.97300000	      1.07297495	      0.02854394	      1.08640660	      5.32033761	    -16.17503738	    -16.17503314	     11.70783809
      0.97400000	      1.04253289	      0.02843856	      1.08642338	      5.27040258	    -16.12955115	    -16.12954691	     11.73390040
      0.97500000	      1.01327512	      0.02833229	      1.08643929	      5.21938976	    -16.08440917	    -16.08440493	     11.75645233
      0.97600000	      0.98451420	      0.02822566	      1.08645489	      5.16791926	    -16.03939363	    -16.03938939	     11.77733060
      0.97700000	      0.95718999	      0.02811803	      1.08646975	      5.11510021	    -15.99466215	    -15.99465791	     11.79245841
      0.97800000	      0.93067453	      0.02800990	      1.08648435	      5.06150583	    -15.95007124	    -15.95006700	     11.80469824
      0.97900000	      0.90518290	      0.02790114	      1.08649864	      5.00692994	    -15.90565827	    -15.90565404	     11.81328205
      0.98000000	      0.88081607	      0.02779173	      1.08651274	      4.95126458	    -15.86146260	    -15.86145836	     11.81909528
      0.98100000	      0.85803141	      0.02768148	      1.08652667	      4.89406032	    -15.81761419	    -15.81760996	     11.82259416
      0.98200000	      0.83718820	      0.02757024	      1.08654048	      4.83498160	    -15.77434524	    -15.77434101	     11.82672879
      0.98300000	      0.81672123	      0.02745880	      1.08655427	      4.77554017	    -15.73119212	    -15.73118789	     11.83105230
      0.98400000	      0.79803379	      0.02734641	      1.08656774	      4.71444495	    -15.68884312	    -15.68883888	     11.83959139
      0.98500000	      0.78032118	      0.02723349	      1.08658104	      4.65244377	    -15.64693462	    -15.64693038	     11.85043983
      0.98600000	      0.76357927	      0.02711995	      1.08659385	      4.58960726	    -15.60568240	    -15.60567816	     11.86552173
      0.98700000	      0.74790711	      0.02700573	      1.08660612	      4.52585017	    -15.56515344	    -15.56514921	     11.88526925
      0.98800000	      0.73314955	      0.02689071	      1.08661733	      4.46141664	    -15.52553244	    -15.52552820	     11.91011681
      0.98900000	      0.71876818	      0.02677535	      1.08662809	      4.39670487	    -15.48628489	    -15.48628065	     11.93706217
      0.99000000	      0.70497332	      0.02665921	      1.08663740	      4.33168584	    -15.44791347	    -15.44790923	     11.96741766
      0.99100000	      0.69142045	      0.02654230	      1.08664489	      4.26673935	    -15.41035588	    -15.41035164	     11.99910227
      0.99200000	      0.67784847	      0.02642497	      1.08665126	      4.20198756	    -15.37317994	    -15.37317570	     12.03023605
      0.99300000	      0.66410774	      0.02630679	      1.08665511	      4.13777861	    -15.33673995	    -15.33673571	     12.05851761
      0.99400000	      0.65036701	      0.02618860	      1.08665896	      4.07356966	    -15.30029996	    -15.30029572	     12.08679917
      0.99500000	      0.63645932	      0.02606942	      1.08666004	      4.00988015	    -15.26442551	    -15.26442127	     12.10785105
      0.99600000	      0.62261153	      0.02594981	      1.08666011	      3.94623814	    -15.22871429	    -15.22871005	     12.12533919
      0.99700000	      0.60887835	      0.02582967	      1.08665899	      3.88260064	    -15.19318012	    -15.19317589	     12.13828329
      0.99800000	      0.59570241	      0.02570876	      1.08665663	      3.81848619	    -15.15783632	    -15.15783208	     12.14592651
      0.99900000	      0.58297723	      0.02558744	      1.08665381	      3.75393264	    -15.12259426	    -15.12259002	     12.15168678
      1.00000000	      0.57096692	      0.02546556	      1.08665044	      3.68866261	    -15.08749379	    -15.08748955	     12.15537052
      1.00100000	      0.56034351	      0.02534291	      1.08664684	      3.62192767	    -15.05260829	    -15.05260405	     12.15901547
      1.00200000	      0.55112069	      0.02521965	      1.08664336	      3.55368817	    -15.01793360	    -15.01792937	     12.16454439
      1.00300000	      0.54327166	      0.02509581	      1.08664001	      3.48398059	    -14.98352374	    -14.98351951	     12.17301382
      1.00400000	      0.53654221	      0.02497149	      1.08663677	      3.41308037	    -14.94935235	    -14.94934811	     12.18423319
      1.00500000	      0.53140217	      0.02484639	      1.08663328	      3.34053584	    -14.91571632	    -14.91571208	     12.20106050
      1.00600000	      0.52681609	      0.02472093	      1.08662945	      3.26744561	    -14.88236400	    -14.88235977	     12.22038470
      1.00700000	      0.52302927	      0.02459484	      1.08662473	      3.19360818	    -14.84956333	    -14.84955909	     12.24410611
      1.00800000	      0.51914040	      0.02446815	      1.08661804	      3.12006772	    -14.81737620	    -14.81737196	     12.27016804
      1.00900000	      0.51519600	      0.02434114	      1.08661028	      3.04668888	    -14.78552299	    -14.78551875	     12.29750380
      1.01000000	      0.51083362	      0.02421389	      1.08660121	      2.97387149	    -14.75395915	    -14.75395491	     12.32496701
      1.01100000	      0.50462133	      0.02408598	      1.08658758	      2.90341230	    -14.72325709	    -14.72325286	     12.35158602
      1.01200000	      0.49700331	      0.02395780	      1.08657125	      2.83467341	    -14.69297760	    -14.69297337	     12.37681065
      1.01300000	      0.48700034	      0.02382925	      1.08655057	      2.76882786	    -14.66333477	    -14.66333054	     12.39937032
      1.01400000	      0.47453792	      0.02370040	      1.08652566	      2.70593533	    -14.63426097	    -14.63425673	     12.41897391
      1.01500000	      0.46048100	      0.02357136	      1.08649801	      2.64495655	    -14.60555510	    -14.60555087	     12.43668826
      1.01600000	      0.44256923	      0.02344186	      1.08646373	      2.58857775	    -14.57770443	    -14.57770019	     12.45080719
      1.01700000	      0.42318900	      0.02331215	      1.08642679	      2.53394203	    -14.55018967	    -14.55018544	     12.46446424
      1.01800000	      0.40185352	      0.02318218	      1.08638630	      2.48162722	    -14.52312220	    -14.52311796	     12.47750630
